<svg width="323" height="400" viewBox="0 0 323 400" fill="none" xmlns="http://www.w3.org/2000/svg">
<path d="M2.62936 1.39722C0.938403 2.10978 0.990641 -1.41261 1.00322 110.445C1.01869 244.392 0.974196 243.353 7.68676 265.329C20.3641 306.827 47.3246 332.764 139.343 391.988L147.13 397L150.279 399L153.427 397L163.842 390.214C226.32 349.5 249.542 331.539 268.038 309.625C289.959 283.655 297.992 259.086 298.015 217.952C298.023 202.972 297.663 204.395 302.049 201.983C333.368 184.755 321.066 134.504 285.516 134.453C249.989 134.402 237.849 184.802 269.225 202.079C273.514 204.441 273.242 203.125 272.955 220.09C272.545 244.362 270.207 256.45 263.138 270.839C255.234 286.927 237.904 305.604 214.186 323.595C211.833 325.38 211.834 325.392 211.945 305.042L212.044 287.075L213.262 286.27C213.932 285.827 215.96 284.577 217.769 283.49C249.07 264.702 237.016 213.591 200.896 211.955C161.305 210.161 146.795 265.38 181.814 284.578L185.592 286.649L185.689 314.914C185.78 341.453 185.746 343.215 185.122 343.781C182.967 345.738 150.965 366.599 150.116 366.599C149.521 366.599 133.995 356.563 118.33 346.052C48.6847 299.323 29.4941 274.683 27.1724 229.006C26.7942 221.561 27.0215 28.1775 27.4104 27.5215C27.9038 26.6856 285.944 26.3288 286.603 27.1627C286.996 27.659 287.074 30.5678 286.981 41.1431L286.864 54.4978L285.808 56.7447C284.529 59.4655 281.478 62.4836 278.899 63.5782C277.063 64.3575 275.943 64.3706 192.772 64.5657C113.074 64.7516 108.414 64.8012 106.818 65.4662C102.688 67.1875 99.1736 70.4289 97.6142 73.9553L96.791 75.8181L96.6942 183.306C96.6091 276.89 96.6671 290.795 97.1441 290.795C97.4439 290.795 103.355 284.954 110.278 277.815L122.864 264.836L122.735 212.749C122.623 167.751 122.68 160.599 123.15 160.191C123.566 159.831 136.37 159.695 177.317 159.619L230.938 159.518L231.037 147.129C231.109 138.316 231.013 134.584 230.708 134.199C230.348 133.746 221.637 133.658 176.931 133.658C135.941 133.658 123.478 133.549 123.129 133.184C122.355 132.374 122.489 92.0585 123.27 91.2438C123.806 90.6839 131.313 90.6232 200.263 90.6222C253.634 90.6212 277.686 90.4898 280.062 90.1856C297.141 87.9984 317.016 75.778 320 57.5C320.845 52.3231 321.903 2.04206 321 1L157.477 1.02527C69.7105 1.03942 3.10047 1.20012 2.62936 1.39722Z" stroke="#00b8a9" stroke-width="8" stroke-linecap="round" stroke-linejoin="round"/>
<path d="M291.099 158.064C299.833 162.464 299.709 175.547 290.891 179.995C283.372 183.788 274.156 177.72 274.156 168.977C274.156 160.024 283.299 154.135 291.099 158.064Z" stroke="#00b8a9" stroke-width="8" stroke-linecap="round" stroke-linejoin="round"/>
<path d="M205.024 236.777C213.784 241.223 215.833 252.961 209.083 260.034C202.18 267.268 190.444 265.245 186.277 256.105C180.685 243.842 193.307 230.83 205.024 236.777Z" stroke="#00b8a9" stroke-width="8" stroke-linecap="round" stroke-linejoin="round"/>
</svg>
